<svg width="24" height="24" viewBox="0 0 24 24" fill="none" xmlns="http://www.w3.org/2000/svg">
  <path d="M12 8.5a3.5 3.5 0 1 0 0 7 3.5 3.5 0 0 0 0-7Z" stroke="currentColor" stroke-width="1.5"/>
  <path d="M4.5 12a7.5 7.5 0 0 1 .1-1l-1.7-1.3 2-3.5 2.1.6a7.5 7.5 0 0 1 1.6-1l.3-2.2h4l.3 2.2c.6.3 1.1.6 1.6 1l2.1-.6 2 3.5-1.7 1.3c.1.7.1 1.3 0 2l1.7 1.3-2 3.5-2.1-.6c-.5.4-1 .8-1.6 1l-.3 2.2h-4l-.3-2.2a7.5 7.5 0 0 1-1.6-1l-2.1.6-2-3.5 1.7-1.3c-.1-.7-.1-1.3 0-2Z" stroke="currentColor" stroke-width="1.5" stroke-linejoin="round"/>
</svg>