<svg width="16" height="16" viewBox="0 0 16 16" fill="none" xmlns="http://www.w3.org/2000/svg">
<g clip-path="url(#clip0_20_211)">
<path d="M15.1607 8.80091H0.842501C0.362562 8.80091 0.0426025 8.48095 0.0426025 8.00101C0.0426025 7.52107 0.362562 7.20111 0.842501 7.20111H15.1607C15.6406 7.20111 15.9606 7.52107 15.9606 8.00101C15.9606 8.48095 15.5606 8.80091 15.1607 8.80091Z" fill="white"/>
<path d="M7.96158 16C7.48164 16 7.16168 15.6801 7.16168 15.2001V0.801943C7.16168 0.322004 7.48164 0.00204468 7.96158 0.00204468C8.44152 0.00204468 8.76148 0.322004 8.76148 0.801943V15.2001C8.76148 15.6001 8.44152 16 7.96158 16Z" fill="white"/>
</g>
<defs>
<clipPath id="clip0_20_211">
<rect width="16" height="16" fill="white"/>
</clipPath>
</defs>
</svg>
