<svg width="17" height="14" viewBox="0 0 17 14" fill="none" xmlns="http://www.w3.org/2000/svg">
<path d="M0 1.6875C0 2.13505 0.177789 2.56428 0.494257 2.88074C0.810725 3.19721 1.23995 3.375 1.6875 3.375C2.13505 3.375 2.56428 3.19721 2.88074 2.88074C3.19721 2.56428 3.375 2.13505 3.375 1.6875C3.375 1.23995 3.19721 0.810725 2.88074 0.494257C2.56428 0.177789 2.13505 0 1.6875 0C1.23995 0 0.810725 0.177789 0.494257 0.494257C0.177789 0.810725 0 1.23995 0 1.6875Z" fill="white"/>
<path d="M6.1875 3.375C6.52126 3.375 6.84752 3.27603 7.12502 3.09061C7.40253 2.90518 7.61882 2.64163 7.74655 2.33328C7.87427 2.02493 7.90769 1.68563 7.84258 1.35829C7.77746 1.03094 7.61674 0.730259 7.38074 0.494258C7.14474 0.258257 6.84406 0.0975382 6.51672 0.0324256C6.18937 -0.032687 5.85007 0.00073117 5.54172 0.128454C5.23337 0.256177 4.96982 0.472469 4.78439 0.749977C4.59897 1.02748 4.5 1.35374 4.5 1.6875C4.5 2.13505 4.67779 2.56428 4.99426 2.88074C5.31072 3.19721 5.73995 3.375 6.1875 3.375ZM10.6875 9.10316e-07C10.3537 9.10316e-07 10.0275 0.0989706 9.74998 0.284396C9.47247 0.46982 9.25618 0.733372 9.12845 1.04172C9.00073 1.35007 8.96731 1.68937 9.03242 2.01672C9.09754 2.34406 9.25826 2.64474 9.49426 2.88074C9.73026 3.11674 10.0309 3.27746 10.3583 3.34258C10.6856 3.40769 11.0249 3.37427 11.3333 3.24655C11.6416 3.11882 11.9052 2.90253 12.0906 2.62503C12.276 2.34752 12.375 2.02126 12.375 1.6875C12.375 1.23995 12.1972 0.810726 11.8807 0.494258C11.5643 0.17779 11.1351 9.10316e-07 10.6875 9.10316e-07ZM15.1875 9.10316e-07C14.8537 9.10316e-07 14.5275 0.0989706 14.25 0.284396C13.9725 0.46982 13.7562 0.733372 13.6285 1.04172C13.5007 1.35007 13.4673 1.68937 13.5324 2.01672C13.5975 2.34406 13.7583 2.64474 13.9943 2.88074C14.2303 3.11674 14.5309 3.27746 14.8583 3.34258C15.1856 3.40769 15.5249 3.37427 15.8333 3.24655C16.1416 3.11882 16.4052 2.90253 16.5906 2.62503C16.776 2.34752 16.875 2.02126 16.875 1.6875C16.875 1.23995 16.6972 0.810726 16.3807 0.494258C16.0643 0.17779 15.6351 9.10316e-07 15.1875 9.10316e-07Z" fill="white"/>
<path d="M0 6.1875C0 6.63505 0.177789 7.06427 0.494257 7.38074C0.810725 7.69721 1.23995 7.875 1.6875 7.875C2.13505 7.875 2.56428 7.69721 2.88074 7.38074C3.19721 7.06427 3.375 6.63505 3.375 6.1875C3.375 5.73995 3.19721 5.31072 2.88074 4.99426C2.56428 4.67779 2.13505 4.5 1.6875 4.5C1.23995 4.5 0.810725 4.67779 0.494257 4.99426C0.177789 5.31072 0 5.73995 0 6.1875Z" fill="white"/>
<path d="M6.1875 7.875C6.52126 7.875 6.84752 7.77603 7.12502 7.59061C7.40253 7.40518 7.61882 7.14163 7.74655 6.83328C7.87427 6.52493 7.90769 6.18563 7.84258 5.85829C7.77746 5.53094 7.61674 5.23026 7.38074 4.99426C7.14474 4.75826 6.84406 4.59754 6.51672 4.53243C6.18937 4.46731 5.85007 4.50073 5.54172 4.62845C5.23337 4.75618 4.96982 4.97247 4.78439 5.24998C4.59897 5.52748 4.5 5.85374 4.5 6.1875C4.5 6.63505 4.67779 7.06428 4.99426 7.38074C5.31072 7.69721 5.73995 7.875 6.1875 7.875ZM10.6875 10.125H6.1875C5.73995 10.125 5.31072 10.3028 4.99426 10.6193C4.67779 10.9357 4.5 11.3649 4.5 11.8125C4.5 12.2601 4.67779 12.6893 4.99426 13.0057C5.31072 13.3222 5.73995 13.5 6.1875 13.5H10.6875C11.1351 13.5 11.5643 13.3222 11.8807 13.0057C12.1972 12.6893 12.375 12.2601 12.375 11.8125C12.375 11.3649 12.1972 10.9357 11.8807 10.6193C11.5643 10.3028 11.1351 10.125 10.6875 10.125ZM10.6875 4.5C10.3537 4.5 10.0275 4.59897 9.74998 4.7844C9.47247 4.96982 9.25618 5.23337 9.12845 5.54172C9.00073 5.85007 8.96731 6.18937 9.03242 6.51672C9.09754 6.84406 9.25826 7.14474 9.49426 7.38074C9.73026 7.61674 10.0309 7.77746 10.3583 7.84258C10.6856 7.90769 11.0249 7.87427 11.3333 7.74655C11.6416 7.61882 11.9052 7.40253 12.0906 7.12503C12.276 6.84752 12.375 6.52126 12.375 6.1875C12.375 5.73995 12.1972 5.31073 11.8807 4.99426C11.5643 4.67779 11.1351 4.5 10.6875 4.5ZM15.1875 4.5C14.8537 4.5 14.5275 4.59897 14.25 4.7844C13.9725 4.96982 13.7562 5.23337 13.6285 5.54172C13.5007 5.85007 13.4673 6.18937 13.5324 6.51672C13.5975 6.84406 13.7583 7.14474 13.9943 7.38074C14.2303 7.61674 14.5309 7.77746 14.8583 7.84258C15.1856 7.90769 15.5249 7.87427 15.8333 7.74655C16.1416 7.61882 16.4052 7.40253 16.5906 7.12503C16.776 6.84752 16.875 6.52126 16.875 6.1875C16.875 5.73995 16.6972 5.31073 16.3807 4.99426C16.0643 4.67779 15.6351 4.5 15.1875 4.5Z" fill="white"/>
</svg>
