<svg width="10" height="16" viewBox="0 0 10 16" fill="none" xmlns="http://www.w3.org/2000/svg">
<path d="M9.16738 12.9069L4.06338 7.875L9.16738 2.84314C9.82981 2.19006 9.8354 1.12707 9.17981 0.48092C8.5242 -0.165217 7.4458 -0.159539 6.78336 0.493541L0.500414 6.68769C0.497689 6.69037 0.495193 6.6932 0.492486 6.69591C0.49101 6.69735 0.489463 6.69867 0.487986 6.70011C0.165305 7.01814 0.00316389 7.43715 0.000316233 7.85855C0.00024592 7.86401 1.75781e-05 7.8695 0 7.87497C1.75781e-05 7.88052 0.00024592 7.88607 0.000316233 7.89163C0.00321662 8.31298 0.165357 8.73192 0.487986 9.04989C0.489445 9.05133 0.490992 9.05265 0.492469 9.05409C0.495176 9.0568 0.497672 9.05963 0.500414 9.06231L6.78336 15.2565C7.4458 15.9095 8.5242 15.9152 9.17981 15.2691C9.83542 14.6229 9.82983 13.5599 9.16738 12.9069Z" fill="#5F7065"/>
</svg>
