<svg width="10" height="16" viewBox="0 0 10 16" fill="none" xmlns="http://www.w3.org/2000/svg">
<path d="M0.500512 2.84314L5.60452 7.875L0.500512 12.9069C-0.16192 13.5599 -0.16751 14.6229 0.488084 15.2691C1.14369 15.9152 2.2221 15.9095 2.88453 15.2565L9.16748 9.06231C9.1702 9.05963 9.1727 9.0568 9.17541 9.05409C9.17688 9.05265 9.17843 9.05133 9.17991 9.04989C9.50259 8.73186 9.66473 8.31285 9.66758 7.89145C9.66765 7.88599 9.66787 7.8805 9.66789 7.87503C9.66787 7.86948 9.66765 7.86393 9.66758 7.85837C9.66468 7.43702 9.50253 7.01808 9.17991 6.70011C9.17845 6.69867 9.1769 6.69735 9.17542 6.69591C9.17272 6.6932 9.17022 6.69037 9.16748 6.68769L2.88453 0.493541C2.2221 -0.159539 1.14369 -0.165216 0.488084 0.48092C-0.167527 1.12706 -0.161938 2.19006 0.500512 2.84314Z" fill="#5F7065"/>
</svg>
