<svg width="19" height="19" viewBox="0 0 19 19" fill="none" xmlns="http://www.w3.org/2000/svg">
<g clip-path="url(#clip0_91_221)">
<path d="M9.63929 0C8.7281 0.00113545 7.85296 0.356068 7.19839 0.989956C6.54383 1.62384 6.161 2.48715 6.13063 3.39783H1.69888C1.46834 3.40754 1.25046 3.50595 1.09077 3.67251C0.931078 3.83906 0.841919 4.06088 0.841919 4.29163C0.841919 4.52237 0.931078 4.74419 1.09077 4.91074C1.25046 5.0773 1.46834 5.17571 1.69888 5.18542H2.68688V15.2C2.68688 17.081 3.96146 18.6168 5.53529 18.6168H13.558C15.1319 18.6168 16.408 17.0905 16.408 15.2V5.19333H17.301C17.5287 5.17977 17.7426 5.07978 17.8989 4.9138C18.0553 4.74782 18.1424 4.52838 18.1424 4.30033C18.1424 4.07228 18.0553 3.85285 17.8989 3.68687C17.7426 3.52088 17.5287 3.4209 17.301 3.40733H13.14C13.1157 2.49544 12.7364 1.62906 12.0828 0.992653C11.4293 0.356248 10.5531 8.7743e-05 9.64087 0L9.63929 0ZM7.80579 3.39783C7.83481 2.93129 8.04062 2.49336 8.38129 2.17329C8.72195 1.85321 9.17185 1.67507 9.63929 1.67517C10.1062 1.67368 10.5559 1.85162 10.8953 2.17222C11.2348 2.49282 11.4381 2.93159 11.4633 3.39783H7.80579ZM5.53529 16.9417C4.97638 16.9417 4.36204 16.2244 4.36204 15.2V5.19333H14.7313V15.2095C14.7313 16.2339 14.117 16.9512 13.5596 16.9512H5.53371V16.9417H5.53529Z" fill="#5F7065"/>
<path d="M6.7355 14.7915C7.14558 14.7915 7.47967 14.3798 7.47967 13.87V8.61016C7.47967 8.09874 7.14558 7.68866 6.7355 7.68866C6.32542 7.68866 5.99133 8.09874 5.99133 8.61016V13.87C5.99133 14.3814 6.31592 14.7915 6.7355 14.7915ZM9.43508 14.7915C9.84517 14.7915 10.1792 14.3798 10.1792 13.87V8.61016C10.1792 8.09874 9.84517 7.68866 9.43508 7.68866C9.025 7.68866 8.69092 8.09874 8.69092 8.61016V13.87C8.69092 14.3814 9.025 14.7915 9.43508 14.7915ZM12.274 14.7915C12.6841 14.7915 13.0182 14.3798 13.0182 13.87V8.61016C13.0182 8.09874 12.6841 7.68866 12.274 7.68866C11.8639 7.68866 11.5298 8.09874 11.5298 8.61016V13.87C11.5298 14.3814 11.8544 14.7915 12.274 14.7915Z" fill="#5F7065"/>
</g>
<defs>
<clipPath id="clip0_91_221">
<rect width="19" height="19" fill="white"/>
</clipPath>
</defs>
</svg>
