<?xml version="1.0" standalone="no"?><!DOCTYPE svg PUBLIC "-//W3C//DTD SVG 1.1//EN" "http://www.w3.org/Graphics/SVG/1.1/DTD/svg11.dtd"><svg class="icon" width="200px" height="200.00px" viewBox="0 0 1024 1024" version="1.1" xmlns="http://www.w3.org/2000/svg"><path d="M762.345 141.14c46.258 31.07 85.417 69.957 116.384 114.091l-36.71 58.3c-19.194 30.486-10.04 70.76 20.446 89.953a65.229 65.229 0 0 0 21.393 8.647l67.933 14.21c10.437 52.792 11.437 107.84 1.912 162.584l-68.043 15.45c-35.13 7.979-57.142 42.925-49.164 78.055a65.229 65.229 0 0 0 9.031 21.277l38.46 58.759c-30.93 46.03-69.63 85.014-113.56 115.877l-59.74-37.598c-30.491-19.187-70.762-10.024-89.949 20.467a65.229 65.229 0 0 0-8.641 21.395l-14.463 69.22c-52.656 10.229-107.543 11.09-162.13 1.513l-15.754-69.179c-8-35.125-42.96-57.115-78.085-49.115a65.229 65.229 0 0 0-21.203 9l-59.389 38.82c-45.92-31.03-84.804-69.778-115.576-113.714l37.681-59.84c19.194-30.486 10.04-70.759-20.446-89.953a65.229 65.229 0 0 0-21.393-8.646L72.247 596.26c-10.16-52.716-10.919-107.643-1.193-162.24l68.483-15.55c35.13-7.979 57.142-42.925 49.164-78.055a65.229 65.229 0 0 0-9.032-21.277l-38.212-58.381c31.176-45.996 70.135-84.9 114.315-115.625l58.738 36.968c30.49 19.187 70.762 10.023 89.948-20.467a65.229 65.229 0 0 0 8.642-21.395l14.09-67.44c52.935-10.235 108.116-11.006 162.976-1.223l15.28 67.109c8 35.125 42.96 57.115 78.086 49.115a65.229 65.229 0 0 0 21.203-9l57.61-37.659zM572.9 364.837c-81.931-33.102-175.185 6.481-208.287 88.412-33.102 81.931 6.481 175.184 88.413 208.287 81.93 33.102 175.184-6.482 208.286-88.413 33.102-81.93-6.481-175.184-88.412-208.286z" fill="#2C2F3C" /></svg>